<?xml version="1.0" standalone="no"?>
<!DOCTYPE svg PUBLIC "-//W3C//DTD SVG 20010904//EN"
 "http://www.w3.org/TR/2001/REC-SVG-20010904/DTD/svg10.dtd">
<svg version="1.0" xmlns="http://www.w3.org/2000/svg"
 width="498.000000pt" height="283.000000pt" viewBox="0 0 498.000000 283.000000"
 preserveAspectRatio="xMidYMid meet">

<g transform="translate(0.000000,283.000000) scale(0.100000,-0.100000)"
fill="#000000" stroke="none">
<path d="M0 1415 l0 -1415 2490 0 2490 0 0 1415 0 1415 -2490 0 -2490 0 0
-1415z m1870 912 c168 -40 259 -97 306 -194 26 -52 29 -70 33 -179 2 -91 -1
-136 -13 -177 -34 -117 -124 -189 -291 -234 -99 -26 -105 -26 -497 -31 l-398
-4 0 422 0 422 398 -5 c311 -3 411 -8 462 -20z m1094 -277 l188 -300 37 58
c20 31 106 166 190 300 l153 242 209 0 209 0 0 -420 0 -420 -175 0 -175 0 -2
264 -3 264 -155 -264 -155 -264 -133 2 -134 3 -151 258 -152 259 -3 -261 -2
-261 -180 0 -180 0 0 420 0 420 213 0 212 -1 189 -299z m376 -1295 c0 -63 2
-115 4 -115 2 0 29 25 58 56 63 65 104 72 46 8 l-37 -39 40 -72 c37 -68 39
-73 20 -73 -12 0 -21 3 -21 8 0 4 -14 31 -31 61 l-31 54 -24 -29 c-13 -17 -23
-43 -24 -61 0 -23 -5 -33 -15 -33 -13 0 -15 26 -15 175 0 149 2 175 15 175 12
0 15 -19 15 -115z m-2120 78 c50 -46 62 -179 23 -256 -19 -37 -68 -57 -143
-57 l-60 0 0 170 0 170 75 0 c67 0 78 -3 105 -27z m1400 -110 c25 -72 48 -134
51 -137 3 -3 14 20 23 52 10 31 32 94 48 140 26 72 33 82 54 82 l24 0 0 -170
c0 -166 0 -170 -21 -170 -20 0 -21 3 -17 135 1 73 0 131 -3 127 -3 -4 -26 -65
-50 -135 -32 -95 -47 -127 -58 -125 -10 2 -33 52 -63 138 l-47 135 0 -137 c-1
-116 -3 -138 -16 -138 -13 0 -15 26 -15 171 l0 170 23 -3 c19 -3 29 -22 67
-135z m-680 62 c0 -33 2 -35 35 -35 19 0 35 -4 35 -10 0 -5 -16 -10 -35 -10
l-35 0 0 -85 c0 -75 2 -86 21 -95 11 -7 27 -9 35 -6 8 3 14 -1 14 -9 0 -21
-64 -20 -84 1 -12 12 -16 37 -16 101 0 76 -2 85 -20 90 -11 3 -20 9 -20 14 0
5 9 9 20 9 16 0 20 7 20 35 0 24 5 35 15 35 10 0 15 -11 15 -35z m-476 -46
c14 -11 26 -16 26 -11 0 16 55 34 84 26 39 -9 46 -31 46 -138 0 -78 -3 -96
-15 -96 -11 0 -15 20 -17 96 -3 109 -14 126 -65 108 -28 -9 -28 -10 -31 -107
-2 -77 -6 -97 -17 -97 -12 0 -15 16 -15 78 0 42 -3 87 -6 100 -8 30 -47 39
-79 18 -24 -16 -25 -22 -25 -106 0 -73 -3 -90 -15 -90 -12 0 -15 19 -15 115 0
96 3 115 15 115 8 0 15 -4 15 -9 0 -6 12 -3 28 5 37 19 55 18 86 -7z m696 9
c0 -7 -15 -20 -33 -28 l-32 -15 -3 -92 c-2 -74 -6 -93 -17 -93 -12 0 -15 21
-15 115 0 96 3 115 15 115 8 0 15 -5 15 -11 0 -5 10 -3 22 5 27 19 48 21 48 4z
m193 -16 c41 -42 40 -160 -3 -194 -34 -27 -101 -24 -130 7 -28 30 -39 110 -20
155 24 59 108 76 153 32z m860 17 c27 -14 37 -28 37 -51 0 -25 -23 -22 -35 5
-19 43 -105 32 -105 -14 0 -23 29 -39 70 -39 33 0 80 -37 80 -63 0 -8 -9 -26
-21 -41 -39 -49 -159 -27 -159 29 0 22 28 18 35 -5 8 -25 49 -36 81 -21 20 9
25 17 22 38 -3 28 -9 31 -91 48 -36 7 -55 45 -39 80 19 41 81 57 125 34z m463
-20 c46 -44 40 -162 -11 -195 -14 -9 -40 -14 -66 -12 -60 4 -84 39 -84 120 0
55 2 62 34 90 28 25 39 29 69 24 19 -3 45 -15 58 -27z m-1955 -69 c17 -49 33
-90 35 -90 1 0 8 17 15 38 32 101 51 142 66 142 8 0 13 -6 11 -12 -3 -7 -29
-79 -58 -160 -32 -90 -59 -148 -67 -148 -17 0 -17 19 2 63 14 34 13 40 -25
141 -22 59 -40 108 -40 111 0 3 6 5 14 5 9 0 27 -34 47 -90z m1203 5 c15 -47
31 -85 35 -85 4 0 20 38 36 85 22 62 34 85 47 85 15 0 14 -7 -9 -67 -14 -38
-40 -108 -58 -158 -21 -57 -39 -91 -49 -93 -20 -4 -20 -6 0 51 17 52 18 49
-39 200 -24 61 -24 67 -9 67 13 0 25 -21 46 -85z m876 -10 c17 -52 33 -95 35
-95 2 0 18 43 35 95 20 60 37 95 46 95 19 0 19 -1 -23 -122 -31 -90 -41 -108
-58 -108 -17 0 -26 18 -58 108 -42 121 -42 122 -23 122 9 0 26 -35 46 -95z"/>
<path d="M1360 1929 l0 -211 163 3 c157 4 164 5 222 34 72 36 94 64 101 132
11 87 -2 139 -45 182 -55 55 -123 71 -299 71 l-142 0 0 -211z"/>
<path d="M1070 690 l0 -140 49 0 c38 0 56 6 78 24 24 21 28 32 31 95 7 127
-14 161 -103 161 l-55 0 0 -140z"/>
<path d="M2254 722 c-20 -13 -34 -50 -34 -92 0 -54 37 -95 78 -85 39 9 52 32
52 92 0 40 -5 58 -20 73 -20 20 -56 26 -76 12z"/>
<path d="M3567 713 c-41 -47 -24 -156 26 -168 37 -10 65 10 77 55 19 69 -9
130 -60 130 -15 0 -34 -8 -43 -17z"/>
</g>
</svg>
